<?xml version="1.0" standalone="no"?>
<!DOCTYPE svg PUBLIC "-//W3C//DTD SVG 20010904//EN"
 "http://www.w3.org/TR/2001/REC-SVG-20010904/DTD/svg10.dtd">
<svg version="1.0" xmlns="http://www.w3.org/2000/svg"
 width="268.000000pt" height="268.000000pt" viewBox="0 0 268.000000 268.000000"
 preserveAspectRatio="xMidYMid meet">
<metadata>
Created by potrace 1.14, written by Peter Selinger 2001-2017
</metadata>
<g transform="translate(0.000000,268.000000) scale(0.100000,-0.100000)"
fill="#000000" stroke="none">
<path d="M342 1601 c19 -52 194 -451 198 -451 3 0 24 41 46 92 l41 92 -62 136
-61 135 -83 3 c-49 2 -82 -1 -79 -7z"/>
<path d="M573 1598 c2 -7 30 -70 62 -139 l57 -126 -57 -124 c-31 -68 -59 -130
-62 -136 -4 -10 15 -13 74 -13 l79 0 42 93 41 92 1 -92 0 -93 80 0 80 0 0 275
0 276 -77 -3 -78 -3 -5 -89 -5 -89 -42 91 -41 92 -77 0 c-58 0 -76 -3 -72 -12z"/>
<path d="M990 1545 l0 -65 70 0 70 0 0 -210 0 -210 80 0 80 0 0 210 0 209 73
3 72 3 0 60 0 60 -222 3 -223 2 0 -65z"/>
<path d="M1450 1335 l0 -275 80 0 80 0 2 240 3 240 55 -240 55 -240 102 0 c98
0 103 1 108 23 71 306 106 452 110 456 3 2 5 -104 5 -237 l0 -242 175 0 175 0
0 60 0 59 -97 3 -98 3 -3 43 -3 42 100 0 101 0 0 60 0 59 -97 3 -98 3 -3 42
-3 42 98 3 98 3 3 63 3 62 -249 0 -249 0 -32 -152 c-18 -84 -35 -160 -38 -168
-7 -18 -4 -30 -47 165 l-32 150 -152 3 -152 3 0 -276z"/>
<path d="M2443 1593 c12 -3 17 -15 17 -44 0 -21 5 -39 10 -39 6 0 10 18 10 39
0 29 5 41 18 44 9 3 -3 5 -28 5 -25 0 -37 -2 -27 -5z"/>
<path d="M2521 1553 c2 -46 2 -46 8 -13 l6 35 14 -35 13 -35 14 33 c16 38 29
43 20 8 -3 -14 -2 -28 4 -31 6 -4 10 11 10 39 0 53 -15 60 -34 15 l-13 -31
-11 31 c-16 46 -32 38 -31 -16z"/>
<path d="M296 1557 c-33 -77 -208 -472 -213 -480 -3 -4 32 -7 77 -5 l81 3 75
165 c50 110 73 172 70 187 -4 12 -21 55 -40 95 l-34 73 -16 -38z"/>
<path d="M360 1251 c-17 -32 -12 -41 25 -41 32 0 35 2 35 30 0 25 -4 30 -25
30 -14 0 -29 -8 -35 -19z"/>
</g>
</svg>
